<svg xmlns="http://www.w3.org/2000/svg" width="22.363" height="24" viewBox="0 0 22.363 24"><defs><style>.a{fill:#d1ab10;fill-rule:evenodd;}</style></defs><path class="a" d="M13.958,10.09a6.2,6.2,0,0,1-.591,3.351,2.564,2.564,0,0,1-2.186,1.438c-1.214,0-1.922-.924-1.922-2.292,0-2.692,2.415-3.182,4.7-3.182v.685Zm3.186,7.7a.649.649,0,0,1-.745.074,7.725,7.725,0,0,1-1.814-2.106,6.26,6.26,0,0,1-5.209,2.3c-2.66,0-4.731-1.641-4.731-4.925a5.369,5.369,0,0,1,3.37-5.164,21.754,21.754,0,0,1,5.942-1.095v-.41a4.06,4.06,0,0,0-.383-2.294,2.119,2.119,0,0,0-1.775-.82,2.407,2.407,0,0,0-2.54,1.9.666.666,0,0,1-.549.582L5.649,5.5a.554.554,0,0,1-.472-.66C5.881,1.122,9.237,0,12.243,0A7.159,7.159,0,0,1,17,1.574c1.538,1.436,1.392,3.352,1.392,5.438v4.923a4.326,4.326,0,0,0,1.192,2.929.593.593,0,0,1-.01.839c-.647.541-1.794,1.537-2.423,2.1l-.008-.007ZM20.7,19.783a18.163,18.163,0,0,1-8.453,2.181A18.883,18.883,0,0,1,1.169,18.258c-.277-.2-.481.154-.251.416A14.7,14.7,0,0,0,11.994,24a13.845,13.845,0,0,0,9.066-3.494c.406-.377.058-.945-.357-.723ZM21.373,22c-.091.227.1.32.31.147,1.339-1.12,1.685-3.466,1.411-3.8s-2.612-.626-4.04.377c-.22.154-.182.367.062.337.805-.1,2.595-.312,2.913.1s-.355,2.094-.656,2.845Z" transform="translate(-0.818)"/></svg>