<svg xmlns="http://www.w3.org/2000/svg" width="24" height="24" viewBox="0 0 24 24"><defs><style>.a{fill:#d1ab10;fill-rule:evenodd;}</style></defs><g transform="translate(-218.731 -92.903)"><path class="a" d="M229.531,92.9h-6a4.8,4.8,0,0,0-4.8,4.8v14.4a4.8,4.8,0,0,0,4.8,4.8h14.4a4.8,4.8,0,0,0,4.8-4.8v-6a1.2,1.2,0,1,0-2.4,0v6a2.4,2.4,0,0,1-2.4,2.4h-14.4a2.4,2.4,0,0,1-2.4-2.4V97.7a2.4,2.4,0,0,1,2.4-2.4h6a1.2,1.2,0,0,0,0-2.4Zm9.1,2.4h-4.3a1.2,1.2,0,0,1,0-2.4h7.2a1.2,1.2,0,0,1,1.2,1.2v7.2a1.2,1.2,0,1,1-2.4,0V97l-8.752,8.752a1.2,1.2,0,0,1-1.7-1.7Z"/></g></svg>